<svg width="37" height="36" viewBox="0 0 37 36" fill="none" xmlns="http://www.w3.org/2000/svg">
<rect x="0.630859" width="36" height="36" rx="12" fill="white"/>
<g clip-path="url(#clip0_204_2)">
<path d="M21.9055 7.013C22.9788 6.99335 24.0432 7.21121 25.0225 7.651C24.2887 7.18246 23.5053 6.79676 22.6865 6.501C20.6771 5.75914 18.5084 5.55675 16.3965 5.914C14.2821 6.27308 12.2983 7.1783 10.6415 8.54C10.5365 8.618 10.2595 8.874 10.1505 8.966C10.0405 9.058 9.79046 9.306 9.69546 9.424C9.60046 9.544 9.38646 9.75 9.24146 9.883C9.09646 10.016 8.91846 10.263 8.82346 10.383L8.49646 10.813C8.40946 10.933 8.21046 11.23 8.12846 11.35C8.04646 11.469 7.99146 11.574 7.95546 11.63C7.91946 11.684 7.83746 11.822 7.81546 11.858C7.79246 11.895 7.57846 12.289 7.52346 12.381C7.46946 12.473 7.30546 12.839 7.24246 12.968L7.02846 13.468C7.02846 13.522 6.86546 13.926 6.83846 13.976C6.81046 14.026 6.74246 14.269 6.70646 14.389C6.62846 14.618 6.56046 14.884 6.49646 15.117C6.46046 15.259 6.38846 15.612 6.35646 15.754V15.864C5.82646 18.782 6.34646 21.794 7.82346 24.358C7.97346 24.606 8.17846 24.945 8.35046 25.178C8.41446 25.275 8.52846 25.44 8.60046 25.532L8.86446 25.88L9.28246 26.375L9.73646 26.833C9.82346 26.911 9.95946 27.058 10.0505 27.131L10.2135 27.273L10.2545 27.305L10.2955 27.337L10.3775 27.407C10.4815 27.493 10.6135 27.585 10.7225 27.663L10.8095 27.723L10.8995 27.783C10.9955 27.846 11.1635 27.952 11.2685 28.007C11.3725 28.062 11.4045 28.089 11.4545 28.112L11.7405 28.254C11.8315 28.3 11.9505 28.35 12.0355 28.387C12.2495 28.474 12.4905 28.552 12.6905 28.625C12.8085 28.653 12.9355 28.695 13.0535 28.726L13.3675 28.796L13.6855 28.85C14.0505 28.905 14.4195 28.932 14.7895 28.933C15.6915 28.9066 16.5807 28.7123 17.4115 28.36C18.2906 27.9803 19.0846 27.428 19.7465 26.736C20.4104 26.042 20.9295 25.2227 21.2735 24.326L21.3505 24.124C21.3505 24.055 21.4285 23.877 21.4505 23.813C21.4915 23.648 21.5505 23.451 21.5825 23.286C21.5825 23.226 21.6185 23.134 21.6275 23.075C21.6805 22.758 21.7155 22.438 21.7325 22.117V21.741C21.4965 21.741 21.2785 21.709 21.0325 21.681C19.1851 21.4502 17.4964 20.5205 16.3135 19.083C15.1245 17.6385 14.5264 15.7975 14.6395 13.93C14.7501 12.0632 15.5645 10.3079 16.9185 9.018C18.2656 7.73475 20.0539 7.01744 21.9145 7.014H21.9045L21.9055 7.013ZM11.6495 25.678C11.3692 25.4412 11.1037 25.1874 10.8545 24.918C9.79463 23.7797 8.98101 22.435 8.46446 20.968C7.94686 19.4987 7.73642 17.9388 7.84616 16.3848C7.9559 14.8309 8.3835 13.316 9.10246 11.934C9.81949 10.5561 10.8136 9.34138 12.0225 8.366C12.1125 8.288 12.2585 8.186 12.3495 8.118C12.7124 7.84594 13.0918 7.59647 13.4855 7.371C14.747 6.66156 16.1375 6.2111 17.5755 6.046L18.1055 6H19.1735L18.6415 6.042L18.1145 6.11L17.5925 6.198C16.0071 6.49096 14.505 7.12716 13.1915 8.062C11.8737 8.99989 10.7753 10.2129 9.97246 11.617C9.16767 13.0263 8.67605 14.5925 8.5311 16.2089C8.38614 17.8253 8.59125 19.454 9.13246 20.984C9.57262 22.2173 10.2281 23.3627 11.0685 24.367L11.1495 24.468L11.1905 24.518L11.2365 24.564C11.4615 24.826 11.7035 25.074 11.9585 25.307C12.8754 26.1163 14.0079 26.6417 15.218 26.8192C16.428 26.9968 17.6637 26.8188 18.7745 26.307C17.6625 26.9348 16.3863 27.2108 15.1143 27.0985C13.8423 26.9862 12.6342 26.4909 11.6495 25.678ZM13.1815 23.578L13.0995 23.492L13.0535 23.451L12.7495 23.139C11.8354 22.1625 11.1262 21.0129 10.6635 19.758C10.1997 18.5006 9.99114 17.1634 10.05 15.8245C10.1089 14.4856 10.4341 13.1718 11.0065 11.96C11.5772 10.7513 12.3844 9.66933 13.3805 8.778C13.8749 8.34005 14.4123 7.95309 14.9845 7.623C15.1845 7.513 15.4395 7.38 15.6395 7.275C15.7165 7.233 15.7895 7.211 15.8615 7.174C16.7581 6.773 17.7114 6.51326 18.6875 6.404C18.8155 6.404 19.0425 6.367 19.1695 6.363H19.5335C19.8975 6.357 20.2615 6.373 20.6235 6.408C20.0615 6.415 19.5015 6.466 18.9475 6.56C17.35 6.82572 15.8422 7.47952 14.5565 8.464C13.2659 9.45232 12.2356 10.7401 11.5545 12.216C10.8438 13.7973 10.5601 15.5372 10.7315 17.2623C10.9029 18.9874 11.5235 20.6375 12.5315 22.048C12.6085 22.144 12.7355 22.328 12.8175 22.424C12.9535 22.594 13.1265 22.8 13.2715 22.96C14.0801 23.8835 15.1752 24.5089 16.3815 24.736C17.5855 24.9615 18.8305 24.7747 19.9155 24.206C17.8835 25.651 14.9665 25.247 13.1815 23.579V23.578ZM14.4115 20.278C14.7975 20.838 15.2555 21.343 15.7755 21.778C16.4116 22.2995 17.1667 22.6561 17.9736 22.816C18.7805 22.976 19.6144 22.9344 20.4015 22.695C19.7483 22.9812 19.0398 23.1188 18.327 23.0981C17.6142 23.0773 16.9149 22.8987 16.2795 22.575C15.6275 22.2517 15.0431 21.8071 14.5575 21.265C13.7197 20.352 13.0859 19.271 12.6985 18.094C12.3102 16.9152 12.1761 15.6675 12.3053 14.4332C12.4344 13.1989 12.8236 12.0059 13.4475 10.933C14.0693 9.86379 14.9125 8.93982 15.9205 8.223C16.0205 8.15 16.1755 8.054 16.2845 7.985C16.4845 7.852 16.7385 7.724 16.9345 7.609C17.1295 7.495 17.2705 7.444 17.4205 7.38C18.3376 6.98716 19.3178 6.76226 20.3145 6.716H21.1605L21.4735 6.743C21.6465 6.743 21.8185 6.789 21.9915 6.812H21.0555C20.2635 6.86259 19.4815 7.01656 18.7295 7.27C17.4692 7.6834 16.3239 8.38774 15.3865 9.326C14.4458 10.2675 13.738 11.4156 13.3195 12.679C12.9002 13.9445 12.7807 15.2901 12.9704 16.6097C13.1601 17.9293 13.6538 19.1868 14.4125 20.283V20.279L14.4115 20.278Z" fill="black"/>
<path d="M26.0201 27.695C26.1201 27.617 26.4021 27.36 26.5111 27.269L26.9661 26.81L27.4201 26.352C27.5251 26.228 27.7431 25.976 27.8381 25.852L28.1651 25.422C28.2521 25.302 28.4521 25.004 28.5331 24.885L28.7061 24.605C28.7331 24.569 28.8241 24.413 28.8471 24.376C28.8701 24.34 29.0831 23.95 29.1331 23.854C29.1831 23.758 29.3561 23.395 29.4201 23.267C29.4831 23.139 29.5701 22.914 29.6331 22.767C29.6331 22.717 29.7971 22.309 29.8191 22.259C29.8421 22.209 29.9191 21.965 29.9561 21.846C30.0331 21.617 30.1011 21.351 30.1651 21.117C30.2011 20.975 30.2691 20.622 30.3051 20.48V20.375C30.836 17.4593 30.3162 14.4497 28.8381 11.881C28.6881 11.629 28.4841 11.295 28.3111 11.056C28.2319 10.9355 28.1485 10.8177 28.0611 10.703L27.7971 10.36C27.7071 10.254 27.4661 9.96 27.3751 9.86C27.2841 9.76 27.0751 9.535 26.9201 9.402C26.8391 9.324 26.6981 9.177 26.6111 9.104L26.4481 8.966L26.4071 8.929L26.3661 8.897L26.2801 8.829C26.1801 8.742 26.0481 8.649 25.9391 8.572L25.8481 8.512L25.7621 8.452C25.6621 8.389 25.4981 8.283 25.3941 8.228C25.2891 8.173 25.2571 8.146 25.2071 8.123L24.9211 7.981L24.6261 7.848C24.4121 7.761 24.1711 7.683 23.9711 7.609L23.6081 7.513L23.2941 7.44L22.9761 7.385C22.6107 7.33002 22.2416 7.30228 21.8721 7.302C20.9711 7.329 20.0821 7.522 19.2501 7.875C18.3709 8.25504 17.5769 8.80761 16.9151 9.5C16.2511 10.194 15.732 11.0133 15.3881 11.91L15.3111 12.116C15.2881 12.18 15.2341 12.359 15.2111 12.423C15.1661 12.588 15.1111 12.785 15.0791 12.95C15.0791 13.01 15.0431 13.102 15.0341 13.161C14.9757 13.4823 14.9376 13.8069 14.9201 14.133V14.532C15.8826 14.5431 16.8331 14.7475 17.7151 15.133C18.599 15.5199 19.3966 16.0795 20.0611 16.779C20.7278 17.4806 21.2485 18.3076 21.5931 19.212C21.9382 20.1183 22.1013 21.0837 22.0731 22.053C22.0211 23.2744 21.6738 24.4651 21.0611 25.523C20.4508 26.5768 19.5927 27.4658 18.5611 28.113C17.5333 28.7576 16.363 29.1399 15.1528 29.2262C13.9427 29.3125 12.7299 29.1002 11.6211 28.608C14.1869 30.2344 17.2648 30.8512 20.2591 30.339C22.3774 29.9755 24.3638 29.0644 26.0211 27.696L26.0201 27.695ZM25.0211 10.543C25.3031 10.781 25.5711 11.035 25.8251 11.303C27.8562 13.4891 28.946 16.3863 28.8591 19.369C28.7766 22.351 27.5236 25.1806 25.3711 27.246C25.2611 27.346 25.0851 27.521 24.9671 27.613L24.7571 27.787L24.6491 27.878L24.5991 27.92L24.3261 28.126C23.9591 28.396 23.5771 28.645 23.1811 28.868L22.6991 29.125C21.0827 29.9314 19.2878 30.3133 17.4831 30.235C20.4079 30.075 23.1575 28.7905 25.1571 26.65C26.9473 24.7267 28.0024 22.2341 28.1371 19.61C28.2748 16.9846 27.4839 14.3946 25.9031 12.294C25.8071 12.156 25.6801 12.014 25.5751 11.886L25.4941 11.786L25.4531 11.735L25.4121 11.685C24.5249 10.5976 23.3026 9.83455 21.9361 9.515C20.572 9.19787 19.1413 9.34351 17.8691 9.929C18.9826 9.29328 20.2633 9.01153 21.5408 9.1212C22.8183 9.23088 24.0322 9.72678 25.0211 10.543ZM23.2041 12.376C23.3491 12.491 23.4941 12.628 23.6311 12.752C24.8008 13.8879 25.6749 15.2928 26.1771 16.844C26.6811 18.397 26.7991 20.052 26.5211 21.662C26.2436 23.2703 25.5776 24.7865 24.5811 26.079C23.5888 27.3671 22.2948 28.3912 20.8131 29.061L20.5861 29.157L20.5321 29.18L20.4721 29.203L20.3591 29.249C20.2411 29.29 20.0231 29.377 19.9051 29.414C18.6651 29.8192 17.3538 29.9596 16.0561 29.826C16.6961 29.815 17.3361 29.747 17.9651 29.625C19.5121 29.3205 20.9641 28.6509 22.2001 27.672C23.4411 26.6894 24.4316 25.4265 25.0901 23.987C25.8133 22.3735 26.0914 20.5959 25.8955 18.8386C25.6996 17.0814 25.0369 15.4086 23.9761 13.994C23.8941 13.88 23.7721 13.738 23.6861 13.628C23.5991 13.518 23.4171 13.325 23.2941 13.169C22.4774 12.2829 21.3913 11.6906 20.2041 11.484C19.0185 11.2791 17.7985 11.4721 16.7341 12.033C18.6551 10.657 21.4141 10.933 23.2081 12.395L23.2041 12.376ZM18.3421 28.791L18.7191 28.631L19.0871 28.451C19.2271 28.383 19.3961 28.281 19.5411 28.204L19.9731 27.934C20.0961 27.846 20.2681 27.727 20.3861 27.635C22.0839 26.3461 23.2368 24.4675 23.6171 22.37C24.0005 20.2692 23.5857 18.101 22.4541 16.29L22.2311 15.952L21.9911 15.626L21.7361 15.306C21.4794 14.9949 21.1935 14.7093 20.8821 14.453C20.2465 13.9336 19.4931 13.5784 18.688 13.4185C17.8829 13.2586 17.0509 13.299 16.2651 13.536C17.0577 13.1906 17.9274 13.06 18.7865 13.1575C19.6456 13.2549 20.4639 13.5769 21.1591 14.091C21.6291 14.431 22.0561 14.832 22.4271 15.282C23.3463 16.3735 23.983 17.6744 24.2811 19.07C24.5801 20.4676 24.532 21.9172 24.1411 23.292C23.7515 24.6639 23.0303 25.9188 22.0411 26.946C21.0554 27.9694 19.8312 28.7322 18.4781 29.166C17.257 29.5469 15.9631 29.6336 14.7021 29.419C15.9456 29.4652 17.1855 29.2577 18.3461 28.809L18.3421 28.791Z" fill="black"/>
</g>
<defs>
<clipPath id="clip0_204_2">
<rect width="25" height="26" fill="white" transform="translate(6.13086 5)"/>
</clipPath>
</defs>
</svg>
