<svg width="71" height="47" viewBox="0 0 71 47" fill="none" xmlns="http://www.w3.org/2000/svg">
<path d="M30.5157 0.609374H35.3126V8.89062H22.3438V45.7344L22 45.8281C21.5313 45.9531 15.3594 45.9531 14.0313 45.8125L12.9688 45.7187V8.89062H0V0.609374L4.10938 0.562499C6.35939 0.531249 12.1406 0.531249 16.9532 0.562499C21.7657 0.593749 27.8594 0.609374 30.5157 0.609374ZM67.1251 41.8281C65.2189 43.8437 63.172 44.9687 59.7657 45.8906C58.2813 46.2969 58.0313 46.3125 54.6876 46.2969C51.3438 46.2812 51.0782 46.2812 49.4532 45.8594C45.2501 44.7812 41.8594 42.6719 39.5469 39.6875C38.8907 38.8437 37.8126 37.0937 37.8126 36.875C37.8126 36.8125 37.9688 36.6719 38.1719 36.5781C38.3751 36.4844 38.7969 36.2187 39.1407 36.0156C39.4844 35.8125 40.1094 35.4375 40.5313 35.2187C40.9532 35 42.1719 34.2812 43.2345 33.6406C44.297 33 45.2657 32.4844 45.3751 32.4844C45.4845 32.4844 45.6876 32.7031 45.8438 32.9687C46.7813 34.5469 48.9688 36.5625 50.5157 37.25C51.4688 37.6562 53.5782 38.1094 54.5938 38.1094C55.5313 38.1094 57.2501 37.7031 58.172 37.2812C59.1563 36.8281 59.6564 36.375 60.2501 35.4687C60.6564 34.8281 60.7032 34.6562 60.6876 33.4375C60.6876 32.3125 60.6251 32 60.3126 31.4844C59.4376 30.0469 58.2501 29.2969 53.4376 27.1719C48.4688 24.9687 46.2345 23.6562 44.4219 21.8906C43.0782 20.5781 42.8126 20.2187 41.9688 18.5781C40.8751 16.4687 40.7344 15.7812 40.7188 12.6406C40.7032 10.4375 40.7501 9.71875 40.9844 8.96875C41.3126 7.84375 42.3751 5.67187 42.8594 5.125C43.8594 3.95312 44.2188 3.59375 44.922 3.01562C47.047 1.26562 50.3595 0.109375 53.5313 0C53.8907 0 55.0782 0.062499 56.1876 0.140624C59.3751 0.406249 61.547 1.1875 63.6407 2.85937C65.2189 4.10937 67.6095 7.04688 67.3751 7.4375C67.2189 7.67188 60.9845 11.8281 60.5782 11.9531C60.3282 12.0312 60.1564 11.9375 59.8126 11.5312C57.6876 8.98437 56.8282 8.4375 54.7657 8.3125C53.297 8.21875 52.5157 8.39062 51.5313 9.04687C50.5001 9.73437 50.0001 10.7812 50.0001 12.2344C50.0157 14.3594 50.8282 15.3594 53.8282 16.8437C55.7657 17.7969 57.422 18.5781 57.547 18.5781C57.7345 18.5781 61.7501 20.5781 62.797 21.2031C67.672 24.0625 69.6564 27 70.172 32.0625C70.547 35.875 69.4689 39.3594 67.1251 41.8281Z" fill="white"/>
</svg>
